<?xml version="1.0" encoding="utf-8"?>
<!-- Generator: Adobe Illustrator 23.0.1, SVG Export Plug-In . SVG Version: 6.00 Build 0)  -->
<svg version="1.1" id="Ebene_1" xmlns="http://www.w3.org/2000/svg" xmlns:xlink="http://www.w3.org/1999/xlink" x="0px" y="0px"
	 viewBox="0 0 595.28 595.28" style="enable-background:new 0 0 595.28 595.28;" xml:space="preserve">
<style type="text/css">
	.st0{fill:#2EA8D3;}
	.st1{fill:#FFFFFF;stroke:#FFFFFF;stroke-width:1.9401;stroke-miterlimit:10;}
	.st2{fill:none;stroke:#1D71B8;stroke-width:0.3415;stroke-miterlimit:10;}
	.st3{fill:#FFFFFF;}
</style>
<g>
	<path class="st0" d="M496.17,539.32H99.11c-23.83,0-43.15-19.32-43.15-43.15V99.11c0-23.83,19.32-43.15,43.15-43.15h397.06
		c23.83,0,43.15,19.32,43.15,43.15v397.06C539.32,520,520,539.32,496.17,539.32z"/>
	<g>
		<path class="st1" d="M186.74,361.04c0,0.71-0.04,1.28-0.11,1.71c-0.08,0.43-0.16,0.78-0.25,1.04c-0.09,0.26-0.22,0.44-0.37,0.53
			c-0.15,0.09-0.34,0.14-0.56,0.14c-0.26,0-0.59-0.08-0.98-0.25c-0.39-0.17-0.87-0.35-1.43-0.56c-0.56-0.21-1.23-0.39-1.99-0.56
			c-0.77-0.17-1.66-0.25-2.67-0.25c-1.38,0-2.56,0.22-3.54,0.67c-0.97,0.45-1.76,1.15-2.36,2.1c-0.6,0.95-1.03,2.19-1.29,3.7
			c-0.26,1.52-0.39,3.36-0.39,5.53v5.5h11.28c0.3,0,0.55,0.07,0.76,0.2c0.2,0.13,0.39,0.36,0.56,0.67c0.17,0.32,0.3,0.72,0.39,1.21
			c0.09,0.49,0.14,1.09,0.14,1.8c0,1.35-0.17,2.32-0.51,2.92c-0.34,0.6-0.79,0.9-1.35,0.9H170.8v44.29c0,0.3-0.08,0.55-0.22,0.76
			c-0.15,0.21-0.4,0.38-0.76,0.53c-0.36,0.15-0.83,0.26-1.43,0.34c-0.6,0.07-1.35,0.11-2.25,0.11c-0.9,0-1.65-0.04-2.25-0.11
			c-0.6-0.08-1.08-0.19-1.43-0.34c-0.36-0.15-0.61-0.33-0.76-0.53c-0.15-0.21-0.22-0.46-0.22-0.76v-44.29h-7.13
			c-0.6,0-1.05-0.3-1.35-0.9c-0.3-0.6-0.45-1.57-0.45-2.92c0-0.71,0.04-1.31,0.11-1.8c0.07-0.49,0.19-0.89,0.34-1.21
			c0.15-0.32,0.34-0.54,0.56-0.67c0.22-0.13,0.49-0.2,0.79-0.2h7.13v-5.22c0-3.52,0.33-6.54,0.98-9.06s1.66-4.59,3-6.2
			c1.35-1.61,3.04-2.8,5.08-3.56c2.04-0.77,4.44-1.15,7.21-1.15c1.31,0,2.58,0.12,3.82,0.36c1.23,0.24,2.19,0.51,2.86,0.79
			c0.67,0.28,1.12,0.53,1.35,0.76c0.22,0.22,0.41,0.52,0.56,0.87c0.15,0.36,0.25,0.79,0.31,1.29
			C186.71,359.72,186.74,360.33,186.74,361.04z"/>
		<path class="st1" d="M209.43,364.74c0,2.17-0.41,3.65-1.23,4.43c-0.82,0.79-2.34,1.18-4.55,1.18c-2.17,0-3.66-0.38-4.46-1.15
			c-0.81-0.77-1.21-2.22-1.21-4.35c0-2.17,0.41-3.65,1.23-4.43c0.82-0.79,2.34-1.18,4.55-1.18c2.17,0,3.66,0.38,4.46,1.15
			C209.03,361.16,209.43,362.61,209.43,364.74z M208.36,432.32c0,0.3-0.08,0.55-0.22,0.76c-0.15,0.21-0.39,0.38-0.73,0.53
			c-0.34,0.15-0.8,0.26-1.4,0.34c-0.6,0.07-1.37,0.11-2.3,0.11c-0.9,0-1.65-0.04-2.25-0.11c-0.6-0.08-1.08-0.19-1.43-0.34
			c-0.36-0.15-0.6-0.33-0.73-0.53c-0.13-0.21-0.2-0.46-0.2-0.76v-50.52c0-0.26,0.07-0.51,0.2-0.73c0.13-0.22,0.37-0.41,0.73-0.56
			c0.36-0.15,0.83-0.26,1.43-0.34c0.6-0.07,1.35-0.11,2.25-0.11c0.93,0,1.7,0.04,2.3,0.11c0.6,0.08,1.07,0.19,1.4,0.34
			c0.34,0.15,0.58,0.34,0.73,0.56c0.15,0.22,0.22,0.47,0.22,0.73V432.32z"/>
		<path class="st1" d="M257.2,418.57c0,2.58-0.48,4.88-1.43,6.9c-0.95,2.02-2.31,3.72-4.07,5.11c-1.76,1.38-3.85,2.43-6.29,3.14
			c-2.43,0.71-5.11,1.07-8.03,1.07c-1.8,0-3.51-0.14-5.14-0.42c-1.63-0.28-3.09-0.64-4.38-1.07c-1.29-0.43-2.39-0.88-3.28-1.35
			c-0.9-0.47-1.55-0.89-1.96-1.26c-0.41-0.37-0.71-0.9-0.9-1.57c-0.19-0.67-0.28-1.59-0.28-2.75c0-0.71,0.04-1.31,0.11-1.8
			c0.07-0.49,0.17-0.88,0.28-1.18c0.11-0.3,0.27-0.51,0.48-0.65c0.2-0.13,0.44-0.2,0.7-0.2c0.41,0,1.02,0.25,1.82,0.76
			c0.8,0.51,1.8,1.06,2.97,1.66c1.18,0.6,2.57,1.15,4.18,1.66c1.61,0.5,3.46,0.76,5.56,0.76c1.57,0,2.99-0.17,4.27-0.5
			c1.27-0.34,2.38-0.83,3.31-1.49c0.93-0.65,1.66-1.49,2.16-2.5c0.51-1.01,0.76-2.21,0.76-3.59c0-1.42-0.37-2.62-1.09-3.59
			c-0.73-0.97-1.69-1.83-2.89-2.58c-1.2-0.75-2.55-1.41-4.04-1.99c-1.5-0.58-3.04-1.19-4.63-1.82c-1.59-0.64-3.14-1.36-4.66-2.16
			c-1.52-0.8-2.87-1.79-4.07-2.95c-1.2-1.16-2.16-2.54-2.89-4.15c-0.73-1.61-1.09-3.54-1.09-5.78c0-1.98,0.38-3.88,1.15-5.7
			c0.77-1.82,1.92-3.4,3.45-4.77c1.53-1.37,3.45-2.46,5.75-3.28c2.3-0.82,4.99-1.23,8.05-1.23c1.35,0,2.69,0.11,4.04,0.34
			c1.35,0.22,2.56,0.5,3.65,0.84c1.08,0.34,2.01,0.7,2.78,1.09c0.77,0.39,1.35,0.74,1.74,1.04c0.39,0.3,0.65,0.56,0.79,0.79
			c0.13,0.22,0.22,0.48,0.28,0.76c0.06,0.28,0.11,0.63,0.17,1.04c0.06,0.41,0.08,0.92,0.08,1.52c0,0.64-0.03,1.19-0.08,1.66
			c-0.06,0.47-0.15,0.85-0.28,1.15c-0.13,0.3-0.29,0.52-0.48,0.65c-0.19,0.13-0.39,0.2-0.62,0.2c-0.34,0-0.82-0.2-1.46-0.62
			c-0.64-0.41-1.46-0.85-2.47-1.32c-1.01-0.47-2.2-0.91-3.56-1.32c-1.37-0.41-2.93-0.62-4.69-0.62c-1.57,0-2.96,0.18-4.15,0.53
			c-1.2,0.36-2.18,0.86-2.95,1.52c-0.77,0.65-1.35,1.43-1.74,2.33c-0.39,0.9-0.59,1.87-0.59,2.92c0,1.46,0.37,2.69,1.12,3.68
			c0.75,0.99,1.72,1.86,2.92,2.61c1.2,0.75,2.56,1.42,4.1,2.02c1.53,0.6,3.1,1.22,4.69,1.85c1.59,0.64,3.16,1.35,4.71,2.13
			c1.55,0.79,2.93,1.74,4.13,2.86c1.2,1.12,2.16,2.47,2.89,4.04C256.83,414.53,257.2,416.4,257.2,418.57z"/>
		<path class="st1" d="M311.93,432.27c0,0.3-0.08,0.56-0.22,0.79c-0.15,0.22-0.4,0.41-0.76,0.56c-0.36,0.15-0.85,0.26-1.49,0.34
			c-0.64,0.07-1.44,0.11-2.41,0.11c-1.01,0-1.84-0.03-2.5-0.08c-0.65-0.06-1.21-0.15-1.65-0.28c-0.45-0.13-0.81-0.32-1.1-0.56
			c-0.28-0.24-0.53-0.53-0.76-0.87l-21.33-27.95v28.01c0,0.3-0.08,0.55-0.22,0.76c-0.15,0.21-0.39,0.38-0.73,0.53
			c-0.34,0.15-0.8,0.26-1.4,0.34c-0.6,0.07-1.37,0.11-2.3,0.11c-0.9,0-1.65-0.04-2.25-0.11c-0.6-0.08-1.08-0.19-1.43-0.34
			c-0.36-0.15-0.6-0.33-0.73-0.53c-0.13-0.21-0.2-0.46-0.2-0.76v-74.99c0-0.3,0.07-0.56,0.2-0.79c0.13-0.22,0.37-0.41,0.73-0.56
			c0.36-0.15,0.83-0.26,1.43-0.34c0.6-0.07,1.35-0.11,2.25-0.11c0.93,0,1.7,0.04,2.3,0.11c0.6,0.08,1.07,0.19,1.4,0.34
			c0.34,0.15,0.58,0.34,0.73,0.56c0.15,0.22,0.22,0.49,0.22,0.79v45.69l19.08-20.99c0.3-0.37,0.62-0.68,0.96-0.93
			c0.34-0.24,0.74-0.45,1.21-0.62s1.02-0.28,1.65-0.34c0.64-0.06,1.41-0.08,2.3-0.08c0.93,0,1.72,0.03,2.36,0.08
			c0.64,0.06,1.15,0.15,1.54,0.28c0.39,0.13,0.67,0.3,0.84,0.51c0.17,0.21,0.25,0.48,0.25,0.81c0,0.45-0.12,0.9-0.36,1.35
			c-0.24,0.45-0.65,0.97-1.21,1.57l-18.3,18.3l20.54,26.66c0.48,0.64,0.83,1.15,1.04,1.54S311.93,431.93,311.93,432.27z"/>
		<path class="st1" d="M358.8,432.38c0,0.45-0.15,0.79-0.45,1.01s-0.71,0.39-1.23,0.51c-0.52,0.11-1.29,0.17-2.3,0.17
			c-0.97,0-1.75-0.06-2.33-0.17c-0.58-0.11-1-0.28-1.26-0.51s-0.39-0.56-0.39-1.01v-5.05c-2.21,2.36-4.67,4.19-7.38,5.5
			c-2.71,1.31-5.58,1.96-8.62,1.96c-2.66,0-5.06-0.35-7.21-1.04c-2.15-0.69-3.98-1.69-5.5-3c-1.52-1.31-2.69-2.92-3.54-4.83
			c-0.84-1.91-1.26-4.08-1.26-6.51c0-2.84,0.58-5.31,1.74-7.41c1.16-2.1,2.83-3.84,5-5.22c2.17-1.38,4.83-2.42,7.97-3.12
			c3.14-0.69,6.68-1.04,10.61-1.04h6.96v-3.93c0-1.95-0.21-3.67-0.62-5.16c-0.41-1.5-1.08-2.74-1.99-3.73
			c-0.92-0.99-2.1-1.74-3.56-2.25c-1.46-0.5-3.25-0.76-5.39-0.76c-2.28,0-4.33,0.27-6.15,0.81c-1.82,0.54-3.41,1.14-4.77,1.8
			c-1.37,0.65-2.51,1.25-3.42,1.8c-0.92,0.54-1.6,0.81-2.05,0.81c-0.3,0-0.56-0.07-0.79-0.22c-0.22-0.15-0.42-0.37-0.59-0.67
			s-0.29-0.68-0.36-1.15c-0.08-0.47-0.11-0.98-0.11-1.54c0-0.93,0.06-1.67,0.2-2.22c0.13-0.54,0.45-1.06,0.95-1.54
			c0.51-0.49,1.38-1.06,2.61-1.71c1.24-0.65,2.66-1.25,4.27-1.8c1.61-0.54,3.37-0.99,5.28-1.35c1.91-0.36,3.83-0.53,5.78-0.53
			c3.63,0,6.72,0.41,9.26,1.23c2.55,0.82,4.6,2.03,6.18,3.62c1.57,1.59,2.71,3.56,3.42,5.92c0.71,2.36,1.07,5.11,1.07,8.25V432.38z
			 M349.59,409.31h-7.91c-2.55,0-4.75,0.22-6.62,0.65c-1.87,0.43-3.42,1.07-4.66,1.91c-1.24,0.84-2.14,1.85-2.72,3.03
			c-0.58,1.18-0.87,2.54-0.87,4.07c0,2.62,0.83,4.71,2.5,6.26c1.66,1.55,3.99,2.33,6.99,2.33c2.43,0,4.69-0.62,6.76-1.85
			c2.08-1.23,4.26-3.12,6.54-5.67V409.31z"/>
		<path class="st1" d="M385.07,432.32c0,0.3-0.08,0.55-0.22,0.76c-0.15,0.21-0.39,0.38-0.73,0.53c-0.34,0.15-0.81,0.26-1.4,0.34
			c-0.6,0.07-1.37,0.11-2.3,0.11c-0.9,0-1.65-0.04-2.25-0.11c-0.6-0.08-1.08-0.19-1.43-0.34c-0.36-0.15-0.6-0.33-0.73-0.53
			c-0.13-0.21-0.2-0.46-0.2-0.76v-74.99c0-0.3,0.06-0.56,0.2-0.79c0.13-0.22,0.37-0.41,0.73-0.56c0.35-0.15,0.83-0.26,1.43-0.34
			c0.6-0.07,1.35-0.11,2.25-0.11c0.93,0,1.7,0.04,2.3,0.11c0.6,0.08,1.07,0.19,1.4,0.34c0.34,0.15,0.58,0.34,0.73,0.56
			c0.15,0.22,0.22,0.49,0.22,0.79V432.32z"/>
		<path class="st1" d="M425.2,433.73l-6.74,18.58c-0.22,0.6-0.8,1.06-1.71,1.38c-0.92,0.32-2.31,0.48-4.18,0.48
			c-0.97,0-1.76-0.05-2.36-0.14c-0.6-0.09-1.06-0.25-1.38-0.48c-0.32-0.22-0.5-0.52-0.53-0.9c-0.04-0.37,0.06-0.82,0.28-1.35
			l6.96-17.57c-0.34-0.15-0.65-0.39-0.95-0.73c-0.3-0.34-0.5-0.69-0.62-1.07l-18.02-48.27c-0.3-0.79-0.45-1.4-0.45-1.85
			c0-0.45,0.15-0.8,0.45-1.07c0.3-0.26,0.79-0.44,1.46-0.53c0.67-0.09,1.57-0.14,2.69-0.14c1.12,0,2,0.03,2.64,0.08
			c0.64,0.06,1.14,0.16,1.52,0.31c0.37,0.15,0.65,0.37,0.81,0.65c0.17,0.28,0.35,0.66,0.53,1.15l14.43,40.53h0.17l13.92-40.75
			c0.22-0.71,0.49-1.17,0.81-1.38c0.32-0.21,0.79-0.36,1.43-0.45c0.64-0.09,1.55-0.14,2.75-0.14c1.05,0,1.91,0.05,2.58,0.14
			c0.67,0.09,1.17,0.27,1.49,0.53c0.32,0.26,0.48,0.62,0.48,1.07c0,0.45-0.11,1.01-0.34,1.68L425.2,433.73z"/>
	</g>
	<path class="st3" d="M269.14,327.72v-63.23h-18.45c-0.81,0-1.56-0.41-1.99-1.1c-0.43-0.69-0.48-1.54-0.13-2.27l3.59-7.55
		c0.4-0.82,1.23-1.34,2.13-1.34h14.83c-0.08-2.28-0.13-5.99-0.13-7.28c0-1.03,0.03-2.04,0.08-3.06h-7.98c-0.79,0-1.53-0.4-1.97-1.06
		c-0.44-0.66-0.51-1.49-0.2-2.22l3.22-7.55c0.37-0.87,1.22-1.43,2.17-1.43h6.7c6.89-25.71,30.27-43.65,56.95-43.65
		c4.74,0,9.46,0.57,14.03,1.68c0.69,0.17,1.26,0.64,1.57,1.28c0.31,0.65,0.31,1.4,0,2.05l-3.23,6.79c-0.47,0.98-1.54,1.5-2.6,1.28
		c-3.19-0.68-6.48-1.02-9.77-1.02c-20.06,0-37.82,12.67-44.35,31.59h37.38c0.8,0,1.54,0.4,1.97,1.07c0.43,0.67,0.5,1.5,0.18,2.23
		l-3.35,7.61c-0.38,0.86-1.29,1.35-2.16,1.41l-36.48-0.06c-0.07,1.01-0.1,2.03-0.1,3.06c0,1.33-0.03,5.04-0.07,7.29l29.77,0.18
		c0.8,0,1.53,0.41,1.96,1.08c0.43,0.67,0.5,1.51,0.17,2.24l-3.36,7.55c-0.38,0.85-1.22,1.4-2.15,1.4c-0.01,0-0.01,0-0.02,0
		l-26.33-0.18v56.46c0,2.67,0,4.84-0.01,6.61c54.87,0.06,115.54,0.28,116.15,0.28c25.75,0,46.62-20.87,46.62-46.62
		c0-18.67-10.99-34.73-26.84-42.18c-1.97-45.09-38.99-81.04-84.4-81.04c-17.14,0-33.08,5.14-46.4,13.94
		c-0.77,0.37-1.53,0.86-2.28,1.52c-7.96-3.6-16.78-5.61-26.08-5.61c-35.01,0-63.39,28.38-63.39,63.39c0,1.2,0.04,2.38,0.11,3.56
		c-23.68,2.22-42.22,22.14-42.22,46.41c0,24.23,18.48,44.13,42.11,46.4"/>
</g>
</svg>
